<svg width="60" height="60" viewBox="0 0 60 60" fill="none" xmlns="http://www.w3.org/2000/svg">
<g clip-path="url(#clip0_109_42)">
<path d="M60.25 30.25C60.25 13.6815 46.8185 0.25 30.25 0.25C13.6815 0.25 0.25 13.6815 0.25 30.25C0.25 46.8185 13.6815 60.25 30.25 60.25C46.8185 60.25 60.25 46.8185 60.25 30.25Z" fill="white" stroke="#D3D7DF" stroke-width="0.5"/>
<path fill-rule="evenodd" clip-rule="evenodd" d="M42.131 30.5314C42.131 29.6541 42.0524 28.81 41.9061 28.0003H30.25V32.7872H36.9105C36.6231 34.3341 35.7508 35.645 34.4409 36.5223V39.6282H38.4403C40.7808 37.4732 42.131 34.3008 42.131 30.5314V30.5314Z" fill="#4285F4"/>
<path fill-rule="evenodd" clip-rule="evenodd" d="M30.25 42.6261C33.5918 42.6261 36.3932 41.5169 38.4402 39.6271L34.4409 36.5223C33.3327 37.2645 31.9149 37.7041 30.25 37.7041C27.0271 37.7041 24.2984 35.526 23.3253 32.6016H19.1908V35.8083C21.2278 39.852 25.4127 42.6251 30.25 42.6251V42.6261Z" fill="#34A853"/>
<path fill-rule="evenodd" clip-rule="evenodd" d="M23.3253 32.6016C23.0772 31.8584 22.937 31.0658 22.937 30.25C22.937 29.4342 23.0782 28.6416 23.3253 27.8984V24.6917H19.1908C18.3508 26.3626 17.8738 28.2534 17.8738 30.25C17.8738 32.2466 18.3518 34.1374 19.1908 35.8083L23.3253 32.6016V32.6016Z" fill="#FBBC05"/>
<path fill-rule="evenodd" clip-rule="evenodd" d="M30.25 22.7959C32.0671 22.7959 33.6987 23.4211 34.9814 24.6473L38.531 21.0977C36.3871 19.1011 33.5858 17.8738 30.25 17.8738C25.4117 17.8738 21.2268 20.647 19.1908 24.6917L23.3253 27.8984C24.2984 24.974 27.0261 22.7959 30.25 22.7959V22.7959Z" fill="#EA4335"/>
</g>
<defs>
<clipPath id="clip0_109_42">
<rect width="60" height="60" fill="white"/>
</clipPath>
</defs>
</svg>
