<svg xmlns="http://www.w3.org/2000/svg" width="25" height="23.997" viewBox="0 0 25 23.997">
  <path d="M25,20.131l-8.412-7.057L19.55,9.542v0l.316-.379,0,0,.316-.377-.035-.032a3.824,3.824,0,0,0-.755-5.017L15.923.832a3.581,3.581,0,0,0-4.888.28l-.02-.018L1.057,12.967.9,13.153l0,0-.316.377.037.032a3.817,3.817,0,0,0,.753,5.015L4.64,21.319a3.822,3.822,0,0,0,2.471.9c.112,0,.227,0,.339-.014a3.807,3.807,0,0,0,2.262-1.014l.037.03,3.6-4.287L21.758,24ZM11.78,1.737a2.608,2.608,0,0,1,3.51-.152l3.467,2.909A2.873,2.873,0,0,1,19.4,8.126L13.924,3.536ZM8.962,20.563a2.877,2.877,0,0,1-3.687,0L2.009,17.822a2.868,2.868,0,0,1-.641-3.63l3.8,3.185Zm.665-.732L1.972,13.409,11.137,2.487l7.655,6.423L13.531,15.18l-.941,1.12Zm4.354-3.652.316-.375,1.658-1.976,7.655,6.425-1.974,2.352Z" transform="translate(0 0)"></path>
</svg>