<svg xmlns="http://www.w3.org/2000/svg" xmlns:xlink="http://www.w3.org/1999/xlink" width="25" height="22.924" viewBox="0 0 25 22.924">
  <defs>
    <clipPath>
      <rect width="25" height="22.924"></rect>
    </clipPath>
  </defs>
  <g transform="translate(0 0)" clip-path="url(#clip-path)">
    <path d="M6.522,1.186,6.24.242a11.449,11.449,0,0,0-2.1.863l.461.869a10.692,10.692,0,0,1,1.921-.788" transform="translate(4.015 0.235)"></path>
    <path d="M3.023,3.556l-.869-.461a11.02,11.02,0,0,0-.861,2.1l.944.282a10.38,10.38,0,0,1,.786-1.921" transform="translate(1.254 3.002)"></path>
    <path d="M4.6,2.08,3.97,1.318a11.68,11.68,0,0,0-1.6,1.609l.762.622A10.777,10.777,0,0,1,4.6,2.08" transform="translate(2.296 1.279)"></path>
    <path d="M13.537,0c-.347,0-.689.014-1.026.043l.087.983c.309-.028.624-.041.94-.041A10.477,10.477,0,1,1,3.081,11.66L4.4,13.137l.735-.654L2.569,9.607,0,12.481l.735.658,1.349-1.513A11.459,11.459,0,1,0,13.537,0" transform="translate(0 0.001)"></path>
    <path d="M6.741,1.672v8.372l5.8,5.8.7-.7L7.726,9.636V1.672Z" transform="translate(6.538 1.622)"></path>
  </g>
</svg>