<svg width="60" height="60" viewBox="0 0 60 60" fill="none" xmlns="http://www.w3.org/2000/svg">
<path d="M60 30C60 13.4315 46.5685 0 30 0C13.4315 0 0 13.4315 0 30C0 46.5685 13.4315 60 30 60C46.5685 60 60 46.5685 60 30Z" fill="#FFE600"/>
<path d="M30 18C22.2694 18 16 22.7871 16 28.6947C16 32.492 18.6005 35.8225 22.4947 37.7211L21.1752 42.4833C21.1237 42.6265 21.1687 42.7883 21.2782 42.8879C21.3554 42.9626 21.452 43 21.5614 43C21.6451 43 21.7287 42.9689 21.806 42.9066L27.4768 39.2027C28.3007 39.3147 29.1439 39.3832 30 39.3832C37.7306 39.3832 44 34.5961 44 28.6885C44 22.7809 37.7241 18 30 18Z" fill="#381E1E"/>
</svg>
