<svg width="71" height="11" viewBox="0 0 71 11" fill="none" xmlns="http://www.w3.org/2000/svg">
<path d="M0.46875 8.98828H4.5V8.61328C3.95312 8.61328 3.57812 8.55859 3.375 8.44922C3.17188 8.33984 3.07031 8.13672 3.07031 7.83984V4.83984H5.07422C6.01953 4.83984 6.75781 4.63281 7.28906 4.21875C7.83594 3.79688 8.10938 3.19922 8.10938 2.42578C8.10938 1.73047 7.81641 1.18359 7.23047 0.785156C6.68359 0.417969 5.97266 0.234375 5.09766 0.234375H0.492188V0.632812C0.960938 0.632812 1.28125 0.679688 1.45312 0.773438C1.60156 0.851562 1.67578 0.996094 1.67578 1.20703V7.83984C1.67578 8.12109 1.55469 8.32422 1.3125 8.44922C1.11719 8.55859 0.835938 8.61328 0.46875 8.61328V8.98828ZM3.07031 4.42969V1.20703C3.07031 1.01953 3.17969 0.875 3.39844 0.773438C3.60938 0.679688 3.87891 0.632812 4.20703 0.632812C4.91797 0.632812 5.48047 0.804687 5.89453 1.14844C6.27734 1.46875 6.46875 1.88672 6.46875 2.40234C6.46875 2.99609 6.32812 3.46875 6.04688 3.82031C5.73438 4.22656 5.27734 4.42969 4.67578 4.42969H3.07031ZM9.52734 8.98828H12.7383V8.64844C12.4258 8.64844 12.1914 8.61328 12.0352 8.54297C11.8477 8.46484 11.7539 8.33203 11.7539 8.14453V4.74609C11.918 4.43359 12.1211 4.17188 12.3633 3.96094C12.6055 3.75 12.8125 3.64453 12.9844 3.64453C13.0781 3.64453 13.1562 3.66797 13.2188 3.71484C13.2578 3.74609 13.3047 3.80078 13.3594 3.87891C13.4219 3.98047 13.4805 4.05078 13.5352 4.08984C13.6367 4.16016 13.7734 4.19531 13.9453 4.19531C14.1328 4.19531 14.2852 4.12109 14.4023 3.97266C14.5195 3.83984 14.5781 3.68359 14.5781 3.50391C14.5781 3.30859 14.5078 3.14844 14.3672 3.02344C14.2188 2.88281 14.0039 2.8125 13.7227 2.8125C13.332 2.8125 12.9453 2.96875 12.5625 3.28125C12.3281 3.46875 12.0586 3.75781 11.7539 4.14844V2.8125L9.45703 3.42188L9.5625 3.63281C9.9375 3.63281 10.1914 3.67188 10.3242 3.75C10.418 3.80469 10.4648 3.89062 10.4648 4.00781V8.14453C10.4648 8.33203 10.3828 8.46484 10.2188 8.54297C10.0781 8.61328 9.84766 8.64844 9.52734 8.64844V8.98828ZM18.75 3.17578C19.2266 3.17578 19.6211 3.47656 19.9336 4.07812C20.2227 4.63281 20.3672 5.27344 20.3672 6C20.3672 6.75781 20.2227 7.41406 19.9336 7.96875C19.6211 8.5625 19.2266 8.85938 18.75 8.85938C18.2266 8.85938 17.8047 8.5625 17.4844 7.96875C17.2031 7.42188 17.0625 6.76562 17.0625 6C17.0625 5.25781 17.2031 4.61719 17.4844 4.07812C17.8047 3.47656 18.2266 3.17578 18.75 3.17578ZM18.7266 2.8125C17.7188 2.8125 16.9531 3.11719 16.4297 3.72656C15.9609 4.28125 15.7266 5.04688 15.7266 6.02344C15.7266 6.99219 15.9609 7.75391 16.4297 8.30859C16.9531 8.91016 17.7188 9.21094 18.7266 9.21094C19.7266 9.21094 20.4844 8.91016 21 8.30859C21.4844 7.75391 21.7266 6.99219 21.7266 6.02344C21.7266 5.04688 21.4844 4.28125 21 3.72656C20.4844 3.11719 19.7266 2.8125 18.7266 2.8125ZM23.6016 3.375L23.6719 3.58594C24.125 3.58594 24.4219 3.625 24.5625 3.70312C24.6875 3.78125 24.7539 3.94141 24.7617 4.18359V9.16406C24.7617 9.47656 24.7344 9.69141 24.6797 9.80859C24.6016 9.96484 24.4414 10.0664 24.1992 10.1133C24.043 10.1445 23.9219 10.1016 23.8359 9.98438C23.7578 9.85938 23.7461 9.70703 23.8008 9.52734C23.8789 9.26172 23.8594 9.05469 23.7422 8.90625C23.6328 8.77344 23.4492 8.70703 23.1914 8.70703C22.9961 8.70703 22.8359 8.77344 22.7109 8.90625C22.5859 9.04688 22.5234 9.23047 22.5234 9.45703C22.5234 9.76953 22.6484 10.0391 22.8984 10.2656C23.1719 10.5078 23.5273 10.6289 23.9648 10.6289C24.6523 10.6289 25.1719 10.457 25.5234 10.1133C25.8828 9.76172 26.0625 9.21875 26.0625 8.48438V2.8125L23.6016 3.375ZM25.1367 0.0351562C24.8398 0.0351562 24.6055 0.125 24.4336 0.304688C24.2852 0.460938 24.2109 0.65625 24.2109 0.890625C24.2109 1.11719 24.2852 1.30859 24.4336 1.46484C24.6055 1.63672 24.8398 1.72266 25.1367 1.72266C25.4258 1.72266 25.6562 1.63672 25.8281 1.46484C25.9844 1.30859 26.0625 1.11719 26.0625 0.890625C26.0625 0.65625 25.9844 0.460938 25.8281 0.304688C25.6562 0.125 25.4258 0.0351562 25.1367 0.0351562ZM33.7031 7.73438L33.5039 7.61719C33.2148 8 32.8242 8.27734 32.332 8.44922C31.9648 8.58203 31.5742 8.64844 31.1602 8.64844C30.5273 8.64844 30.0352 8.41016 29.6836 7.93359C29.3164 7.43359 29.1328 6.70312 29.1328 5.74219H33.668C33.668 4.79688 33.3828 4.05859 32.8125 3.52734C32.2969 3.05078 31.6445 2.8125 30.8555 2.8125C29.7773 2.8125 28.9648 3.15234 28.418 3.83203C27.9492 4.42578 27.7148 5.22656 27.7148 6.23438C27.7148 7.13281 27.9727 7.84375 28.4883 8.36719C29.0273 8.90625 29.7695 9.17578 30.7148 9.17578C31.4023 9.17578 32.0078 9.05078 32.5312 8.80078C33.0781 8.55078 33.4688 8.19531 33.7031 7.73438ZM32.2148 5.34375H29.2031C29.2422 4.64844 29.418 4.11328 29.7305 3.73828C30.0117 3.40234 30.3594 3.23438 30.7734 3.23438C31.1953 3.23438 31.5352 3.40234 31.793 3.73828C32.0742 4.11328 32.2148 4.64844 32.2148 5.34375ZM40.9219 7.71094L40.6992 7.55859C40.4727 7.93359 40.1328 8.21484 39.6797 8.40234C39.3438 8.55078 39.0234 8.625 38.7188 8.625C37.9688 8.625 37.418 8.37891 37.0664 7.88672C36.7695 7.45703 36.6211 6.84766 36.6211 6.05859C36.6211 5.31641 36.7812 4.67188 37.1016 4.125C37.4688 3.51562 37.9531 3.21094 38.5547 3.21094C38.8125 3.21094 39.0039 3.29297 39.1289 3.45703C39.207 3.55078 39.2812 3.72656 39.3516 3.98438C39.4141 4.21094 39.4805 4.36719 39.5508 4.45312C39.6523 4.59375 39.8125 4.66406 40.0312 4.66406C40.3203 4.66406 40.5273 4.56641 40.6523 4.37109C40.7695 4.18359 40.7812 3.97266 40.6875 3.73828C40.5938 3.47266 40.3984 3.25781 40.1016 3.09375C39.7578 2.90625 39.332 2.8125 38.8242 2.8125C37.707 2.8125 36.8203 3.13672 36.1641 3.78516C35.5469 4.40234 35.2383 5.19531 35.2383 6.16406C35.2383 7.15625 35.5234 7.91797 36.0938 8.44922C36.6094 8.93359 37.2969 9.17578 38.1562 9.17578C38.8125 9.17578 39.3945 9.04297 39.9023 8.77734C40.4336 8.51172 40.7734 8.15625 40.9219 7.71094ZM41.8125 3.51562H42.8789V7.60547C42.8789 8.16797 43.0352 8.57812 43.3477 8.83594C43.6289 9.07031 44.0508 9.1875 44.6133 9.1875C45.0508 9.1875 45.4219 9.07422 45.7266 8.84766C46.0469 8.61328 46.2812 8.26562 46.4297 7.80469L46.1953 7.65234C46.0781 7.90234 45.9141 8.11328 45.7031 8.28516C45.4922 8.46484 45.2969 8.55469 45.1172 8.55469C44.7734 8.55469 44.5312 8.48438 44.3906 8.34375C44.2422 8.20312 44.168 7.96484 44.168 7.62891V3.51562H46.0664V3.09375H44.168V0.925781H43.7461C43.6914 1.66016 43.4805 2.21875 43.1133 2.60156C42.8086 2.91406 42.375 3.125 41.8125 3.23438V3.51562ZM51.5273 10.6641H54.7617V10.3125C54.3633 10.3125 54.0859 10.2656 53.9297 10.1719C53.7969 10.0859 53.7305 9.94531 53.7305 9.75V8.13281C53.8398 8.35938 54.0391 8.55859 54.3281 8.73047C54.6484 8.91797 55.0117 9.01172 55.418 9.01172C56.2852 9.01172 56.9609 8.73047 57.4453 8.16797C57.9297 7.60547 58.1719 6.82031 58.1719 5.8125C58.1719 4.8125 57.8828 4.03906 57.3047 3.49219C56.8281 3.03906 56.2578 2.8125 55.5938 2.8125C55.1719 2.8125 54.8008 2.89062 54.4805 3.04688C54.2227 3.17188 53.9727 3.375 53.7305 3.65625V2.8125L51.457 3.32812L51.5039 3.57422C51.7383 3.57422 51.9492 3.61719 52.1367 3.70312C52.3242 3.78906 52.418 3.89844 52.418 4.03125V9.75C52.418 9.94531 52.3555 10.0859 52.2305 10.1719C52.0898 10.2656 51.8555 10.3125 51.5273 10.3125V10.6641ZM53.7305 7.46484V4.18359C53.8242 3.94141 54.0234 3.72266 54.3281 3.52734C54.6484 3.33203 54.9727 3.23438 55.3008 3.23438C55.8086 3.23438 56.1875 3.48438 56.4375 3.98438C56.6641 4.42188 56.7773 5.01172 56.7773 5.75391C56.7773 6.78516 56.6055 7.53906 56.2617 8.01562C56.0039 8.39062 55.668 8.57812 55.2539 8.57812C54.8477 8.57812 54.5 8.45703 54.2109 8.21484C53.9609 8.01172 53.8008 7.76172 53.7305 7.46484ZM61.4414 0.0351562C61.1523 0.0351562 60.9219 0.125 60.75 0.304688C60.6016 0.460938 60.5273 0.65625 60.5273 0.890625C60.5273 1.10937 60.6016 1.30078 60.75 1.46484C60.9219 1.63672 61.1523 1.72266 61.4414 1.72266C61.7305 1.72266 61.9609 1.63672 62.1328 1.46484C62.2969 1.30859 62.3789 1.11719 62.3789 0.890625C62.3789 0.65625 62.2969 0.460938 62.1328 0.304688C61.9609 0.125 61.7305 0.0351562 61.4414 0.0351562ZM59.8242 8.98828H63.1406V8.64844C62.8203 8.64844 62.582 8.60938 62.4258 8.53125C62.2773 8.45312 62.2031 8.33203 62.2031 8.16797V2.8125L59.9648 3.46875L60 3.70312C60.3438 3.70312 60.5859 3.73828 60.7266 3.80859C60.8438 3.87109 60.9023 3.97656 60.9023 4.125V8.16797C60.9023 8.33203 60.8086 8.45312 60.6211 8.53125C60.4414 8.60938 60.1758 8.64844 59.8242 8.64844V8.98828ZM70.6758 7.73438L70.4766 7.61719C70.1875 8 69.7969 8.27734 69.3047 8.44922C68.9375 8.58203 68.5469 8.64844 68.1328 8.64844C67.5 8.64844 67.0078 8.41016 66.6562 7.93359C66.2891 7.43359 66.1055 6.70312 66.1055 5.74219H70.6406C70.6406 4.79688 70.3555 4.05859 69.7852 3.52734C69.2695 3.05078 68.6172 2.8125 67.8281 2.8125C66.75 2.8125 65.9375 3.15234 65.3906 3.83203C64.9219 4.42578 64.6875 5.22656 64.6875 6.23438C64.6875 7.13281 64.9453 7.84375 65.4609 8.36719C66 8.90625 66.7422 9.17578 67.6875 9.17578C68.375 9.17578 68.9805 9.05078 69.5039 8.80078C70.0508 8.55078 70.4414 8.19531 70.6758 7.73438ZM69.1875 5.34375H66.1758C66.2148 4.64844 66.3906 4.11328 66.7031 3.73828C66.9844 3.40234 67.332 3.23438 67.7461 3.23438C68.168 3.23438 68.5078 3.40234 68.7656 3.73828C69.0469 4.11328 69.1875 4.64844 69.1875 5.34375Z" fill="#CC00CC"/>
</svg>
